<?xml version="1.0" encoding="UTF-8"?>
<!DOCTYPE svg PUBLIC "-//W3C//DTD SVG 1.1//EN" "http://www.w3.org/Graphics/SVG/1.1/DTD/svg11.dtd">
<!-- Creator: CorelDRAW 2019 (64-Bit) -->
<svg xmlns="http://www.w3.org/2000/svg" xml:space="preserve" width="100.058mm" height="22.5873mm" version="1.1" style="shape-rendering:geometricPrecision; text-rendering:geometricPrecision; image-rendering:optimizeQuality; fill-rule:evenodd; clip-rule:evenodd"
viewBox="0 0 1726.58 389.76"
 xmlns:xlink="http://www.w3.org/1999/xlink">
 <defs>
  <style type="text/css">
   <![CDATA[
    .fil1 {fill:#dc3545}
    .fil0 {fill:#dc3545;fill-rule:nonzero}
   ]]>
  </style>
 </defs>
 <g id="LOGO_x0020_2">
  <metadata id="CorelCorpID_0Corel-Layer"/>
  <g id="_1776207782080">
   <g>
    <g>
     <path class="fil0" d="M512.62 89.33c1.8,0 2.7,0.94 2.7,2.82l0 5.82c0,0.74 -0.21,1.39 -0.66,1.94 -0.45,0.55 -1.18,0.82 -2.16,0.82l-47.35 0 0 24.17 37.25 0c0.7,0 1.31,0.22 1.82,0.63 0.51,0.41 0.76,1.1 0.76,2.08l0 5.99c0,0.72 -0.22,1.35 -0.65,1.9 -0.43,0.55 -1.08,0.82 -1.94,0.82l-37.25 0 0 28.92 47.58 0c1.8,0 2.7,0.92 2.7,2.76l0 6.05c0,1.72 -0.86,2.58 -2.58,2.58l-56.52 0c-1.72,0 -2.58,-0.82 -2.58,-2.47l0 -82.13c0,-1.8 0.86,-2.7 2.58,-2.7l56.28 0zm11.16 72.73c-0.19,-0.59 -0.33,-1.08 -0.41,-1.45 -0.08,-0.37 -0.06,-0.69 0.04,-0.94 0.1,-0.25 0.26,-0.47 0.47,-0.67 0.22,-0.19 0.51,-0.39 0.9,-0.59l5.56 -2.58c0.98,-0.39 1.74,-0.35 2.29,0.14 0.55,0.49 0.98,1.1 1.29,1.8 0.59,1.53 1.51,2.86 2.78,4.01 1.27,1.16 2.64,2.12 4.13,2.86 1.47,0.74 2.97,1.29 4.5,1.66 1.53,0.37 2.84,0.57 3.92,0.57 1.49,0 3.13,-0.22 4.94,-0.65 1.78,-0.43 3.49,-1.1 5.05,-2 1.59,-0.9 2.92,-2.08 3.99,-3.51 1.08,-1.43 1.61,-3.11 1.61,-5.07 0,-2.12 -0.51,-3.82 -1.53,-5.11 -1.02,-1.29 -2.33,-2.37 -3.96,-3.21 -1.63,-0.84 -3.45,-1.51 -5.46,-2.02 -2.02,-0.51 -4.02,-1.04 -6.01,-1.59 -3.5,-0.94 -6.66,-2.09 -9.4,-3.45 -2.76,-1.35 -5.11,-2.92 -7.05,-4.7 -1.94,-1.78 -3.41,-3.82 -4.42,-6.11 -1.02,-2.29 -1.53,-4.86 -1.53,-7.72 0,-3.13 0.61,-5.99 1.82,-8.58 1.21,-2.58 2.9,-4.8 5.07,-6.64 2.17,-1.84 4.78,-3.27 7.79,-4.29 3.04,-1.02 6.38,-1.53 10.07,-1.53 3.01,0 5.6,0.27 7.77,0.82 2.17,0.55 4.09,1.35 5.78,2.43 1.68,1.08 3.23,2.41 4.64,3.99 1.41,1.59 2.88,3.43 4.41,5.5 0.47,0.78 0.72,1.45 0.76,2.02 0.04,0.57 -0.31,1.14 -1.06,1.68l-4.58 3.47c-0.9,0.51 -1.59,0.65 -2.06,0.41 -0.47,-0.23 -0.98,-0.69 -1.53,-1.35 -0.9,-1.06 -1.78,-2.08 -2.64,-3.05 -0.86,-0.98 -1.82,-1.86 -2.92,-2.62 -1.1,-0.76 -2.35,-1.37 -3.74,-1.82 -1.37,-0.45 -3.04,-0.67 -4.94,-0.67 -1.72,0 -3.39,0.2 -4.99,0.59 -1.6,0.39 -3.04,1.02 -4.31,1.88 -1.27,0.86 -2.29,1.94 -3.06,3.25 -0.76,1.31 -1.14,2.88 -1.14,4.68 0,1.37 0.47,2.62 1.41,3.78 0.94,1.16 2.13,2.21 3.58,3.15 1.45,0.94 3.01,1.74 4.74,2.41 1.72,0.67 3.39,1.2 4.99,1.59 3.72,0.86 7.11,1.96 10.18,3.29 3.05,1.33 5.7,2.92 7.89,4.76 2.17,1.84 3.88,3.97 5.09,6.42 1.21,2.45 1.82,5.23 1.82,8.32 0,3.41 -0.66,6.46 -2.02,9.18 -1.35,2.72 -3.23,5.03 -5.64,6.93 -2.39,1.9 -5.25,3.37 -8.58,4.39 -3.33,1.02 -6.93,1.53 -10.85,1.53 -2.47,0 -4.99,-0.31 -7.58,-0.94 -2.6,-0.63 -5.05,-1.59 -7.36,-2.88 -2.31,-1.29 -4.41,-2.92 -6.27,-4.88 -1.88,-1.96 -3.31,-4.27 -4.29,-6.93zm117.97 -2.41c0.27,-0.23 0.59,-0.49 0.92,-0.74 0.33,-0.26 0.69,-0.43 1.06,-0.55 0.37,-0.12 0.74,-0.12 1.12,0 0.37,0.12 0.74,0.43 1.14,0.94 0.78,1.06 1.43,1.92 1.92,2.58 0.49,0.67 0.88,1.19 1.19,1.59 0.31,0.43 0.55,0.74 0.71,0.94 0.19,0.31 0.37,0.63 0.51,0.94 0.14,0.31 0.16,0.65 0.08,1.02 -0.08,0.37 -0.27,0.8 -0.61,1.25 -0.33,0.45 -0.86,0.94 -1.57,1.51 -1.68,1.33 -3.43,2.55 -5.25,3.62 -1.82,1.08 -3.74,2.02 -5.74,2.8 -2,0.8 -4.09,1.41 -6.31,1.84 -2.21,0.43 -4.56,0.65 -7.03,0.65 -3.49,0 -6.85,-0.47 -10.11,-1.39 -3.25,-0.92 -6.31,-2.23 -9.18,-3.94 -2.88,-1.7 -5.5,-3.74 -7.87,-6.09 -2.37,-2.35 -4.43,-4.95 -6.15,-7.81 -1.72,-2.88 -3.06,-5.93 -3.99,-9.22 -0.94,-3.27 -1.41,-6.68 -1.41,-10.2 0,-3.52 0.47,-6.93 1.41,-10.2 0.94,-3.29 2.27,-6.34 3.99,-9.22 1.72,-2.86 3.78,-5.46 6.15,-7.81 2.37,-2.35 4.99,-4.39 7.87,-6.09 2.88,-1.7 5.93,-3.02 9.18,-3.94 3.25,-0.92 6.62,-1.39 10.11,-1.39 2.19,0 4.39,0.19 6.56,0.61 2.17,0.41 4.27,0.98 6.29,1.7 2.02,0.72 3.92,1.59 5.7,2.57 1.78,0.98 3.37,2.04 4.78,3.17 0.27,0.23 0.61,0.49 0.98,0.78 0.37,0.29 0.69,0.63 0.94,1 0.26,0.37 0.41,0.78 0.49,1.23 0.08,0.45 -0.02,0.94 -0.29,1.45l-4.29 5.64c-1.02,1.33 -2.19,1.31 -3.52,-0.06 -1.06,-1.1 -2.27,-2.1 -3.64,-2.98 -1.37,-0.88 -2.84,-1.64 -4.41,-2.29 -1.57,-0.65 -3.19,-1.14 -4.87,-1.49 -1.68,-0.35 -3.35,-0.53 -4.99,-0.53 -3.45,0 -6.78,0.74 -9.99,2.23 -3.21,1.49 -6.05,3.5 -8.52,6.05 -2.47,2.57 -4.45,5.52 -5.93,8.89 -1.49,3.37 -2.23,6.91 -2.23,10.63 0,3.78 0.75,7.32 2.21,10.69 1.47,3.35 3.43,6.27 5.89,8.79 2.47,2.51 5.33,4.48 8.56,5.95 3.23,1.47 6.58,2.21 10.07,2.21 2.15,0 4.11,-0.22 5.85,-0.63 1.74,-0.41 3.33,-0.96 4.76,-1.64 1.43,-0.69 2.74,-1.47 3.96,-2.35 1.21,-0.88 2.39,-1.78 3.53,-2.72zm71.85 8.28c-1.14,1.37 -2.31,2.58 -3.54,3.66 -1.23,1.08 -2.62,2 -4.17,2.74 -1.55,0.74 -3.31,1.31 -5.27,1.7 -1.96,0.39 -4.23,0.59 -6.81,0.59 -4.82,0 -9.07,-0.84 -12.75,-2.51 -3.68,-1.66 -6.76,-3.94 -9.24,-6.81 -2.49,-2.88 -4.37,-6.25 -5.64,-10.12 -1.27,-3.88 -1.92,-8.03 -1.92,-12.45l0 -39.89c0,-1.33 0.35,-2.33 1.04,-3 0.69,-0.67 1.55,-1 2.6,-1l4.35 0c1.45,0 2.39,0.29 2.8,0.88 0.41,0.59 0.61,1.57 0.61,2.94l0 40.07c0,2.35 0.33,4.74 0.98,7.19 0.65,2.45 1.7,4.68 3.17,6.68 1.47,2 3.41,3.62 5.84,4.88 2.43,1.25 5.4,1.88 8.93,1.88 2.23,0 4.48,-0.41 6.73,-1.21 2.25,-0.8 4.29,-1.98 6.11,-3.54 1.82,-1.57 3.31,-3.51 4.46,-5.8 1.16,-2.29 1.72,-4.94 1.72,-7.95l0 -43.41c0,-1.72 0.86,-2.58 2.58,-2.58l6.05 0c1.84,0 2.76,0.86 2.76,2.58l0 69.44c0,0.78 -0.26,1.41 -0.76,1.88 -0.51,0.47 -1.12,0.7 -1.82,0.7l-6.11 0c-0.82,0 -1.47,-0.25 -1.96,-0.76 -0.49,-0.51 -0.74,-1.12 -0.74,-1.82l0 -4.94zm81.31 -8.4c0.35,-0.31 0.74,-0.61 1.15,-0.88 0.41,-0.27 0.82,-0.41 1.25,-0.41 0.59,0 1.15,0.35 1.7,1.06 0.78,1.06 1.43,1.92 1.92,2.58 0.49,0.67 0.88,1.19 1.19,1.59 0.31,0.43 0.55,0.74 0.71,0.94 0.19,0.23 0.35,0.47 0.47,0.72 0.12,0.25 0.18,0.55 0.18,0.86 0,0.43 -0.16,0.9 -0.49,1.39 -0.33,0.49 -0.92,1.06 -1.74,1.74 -1.68,1.33 -3.43,2.55 -5.25,3.62 -1.82,1.08 -3.74,2.02 -5.74,2.8 -2,0.8 -4.09,1.41 -6.31,1.84 -2.21,0.43 -4.56,0.65 -7.03,0.65 -3.49,0 -6.85,-0.47 -10.11,-1.39 -3.25,-0.92 -6.31,-2.23 -9.18,-3.94 -2.88,-1.7 -5.5,-3.74 -7.87,-6.09 -2.37,-2.35 -4.43,-4.95 -6.15,-7.81 -1.72,-2.88 -3.06,-5.93 -3.99,-9.22 -0.94,-3.27 -1.41,-6.68 -1.41,-10.2 0,-3.52 0.45,-6.95 1.33,-10.24 0.88,-3.29 2.13,-6.36 3.76,-9.24 1.63,-2.86 3.58,-5.46 5.89,-7.81 2.31,-2.35 4.91,-4.39 7.79,-6.07 2.88,-1.68 5.99,-2.98 9.34,-3.9 3.35,-0.92 6.87,-1.39 10.59,-1.39 2.94,0 5.85,0.33 8.75,1 2.9,0.66 5.68,1.64 8.34,2.92 2.66,1.27 5.17,2.84 7.5,4.74 2.33,1.88 4.41,4.03 6.25,6.46 2.51,3.37 4.37,7.23 5.58,11.53 1.21,4.31 1.78,9.26 1.7,14.88 0,1.84 -0.86,2.76 -2.58,2.76l-61.92 0c0.67,3.13 1.84,6.03 3.5,8.69 1.67,2.66 3.66,4.97 5.99,6.95 2.33,1.98 4.91,3.53 7.77,4.64 2.86,1.12 5.82,1.68 8.87,1.68 2.15,0 4.11,-0.22 5.85,-0.63 1.74,-0.41 3.33,-0.96 4.76,-1.64 1.43,-0.69 2.74,-1.47 3.96,-2.35 1.21,-0.88 2.39,-1.78 3.53,-2.72l0.12 -0.12zm-32.19 -43.47c-2.98,2 -5.54,4.5 -7.7,7.54 -2.15,3.04 -3.62,6.38 -4.41,10.03l53.11 0c-0.43,-3.25 -1.43,-6.21 -3.02,-8.87 -1.59,-2.66 -3.58,-4.94 -5.97,-6.81 -2.39,-1.88 -5.07,-3.35 -8.07,-4.39 -3,-1.04 -6.11,-1.55 -9.32,-1.55 -2.55,0 -5.05,0.33 -7.54,1 -2.49,0.67 -4.86,1.68 -7.09,3.06zm79.43 57.98c0,1.72 -0.86,2.58 -2.58,2.58l-6.05 0c-1.84,0 -2.76,-0.86 -2.76,-2.58l0 -91.65c0,-0.78 0.26,-1.41 0.76,-1.88 0.51,-0.47 1.12,-0.7 1.82,-0.7l6.11 0c0.82,0 1.49,0.25 1.98,0.76 0.49,0.51 0.72,1.12 0.72,1.82l0 91.65zm80.42 -7.34c-3.37,3.45 -7.28,6.15 -11.77,8.13 -4.46,1.98 -9.3,2.98 -14.51,2.98 -3.49,0 -6.87,-0.47 -10.14,-1.39 -3.27,-0.92 -6.34,-2.23 -9.2,-3.94 -2.86,-1.7 -5.46,-3.72 -7.81,-6.07 -2.37,-2.35 -4.39,-4.97 -6.09,-7.85 -1.7,-2.88 -3.01,-5.95 -3.94,-9.22 -0.92,-3.27 -1.39,-6.66 -1.39,-10.18 0,-3.52 0.47,-6.93 1.39,-10.2 0.92,-3.27 2.23,-6.33 3.94,-9.19 1.7,-2.86 3.72,-5.46 6.09,-7.81 2.35,-2.35 4.95,-4.37 7.81,-6.05 2.86,-1.68 5.91,-3 9.16,-3.92 3.25,-0.92 6.66,-1.37 10.18,-1.37 5.21,0 10.05,0.98 14.51,2.96 4.48,1.96 8.4,4.66 11.77,8.09l0 -7.17c0,-1.72 0.86,-2.58 2.58,-2.58l6.05 0c1.84,0 2.76,0.86 2.76,2.58l0 69.56c0,0.78 -0.26,1.41 -0.76,1.88 -0.51,0.47 -1.11,0.71 -1.82,0.71l-6.11 0c-0.82,0 -1.47,-0.26 -1.96,-0.76 -0.49,-0.51 -0.75,-1.11 -0.75,-1.82l0 -7.34zm0.59 -27.53c0,-3.66 -0.71,-7.19 -2.12,-10.52 -1.41,-3.35 -3.33,-6.29 -5.76,-8.77 -2.43,-2.51 -5.27,-4.51 -8.54,-5.99 -3.27,-1.49 -6.76,-2.23 -10.44,-2.23 -3.68,0 -7.13,0.74 -10.36,2.23 -3.23,1.49 -6.05,3.49 -8.46,5.99 -2.41,2.49 -4.31,5.42 -5.7,8.77 -1.39,3.33 -2.09,6.85 -2.09,10.52 0,3.64 0.7,7.15 2.09,10.52 1.39,3.37 3.29,6.32 5.7,8.89 2.41,2.56 5.23,4.6 8.46,6.13 3.23,1.53 6.68,2.29 10.36,2.29 3.68,0 7.17,-0.76 10.44,-2.29 3.27,-1.53 6.11,-3.57 8.54,-6.13 2.43,-2.57 4.35,-5.52 5.76,-8.89 1.41,-3.37 2.12,-6.87 2.12,-10.52zm114.5 -30.8c-0.55,-0.35 -1.45,-1.04 -2.7,-2.06 -1.25,-1.02 -2.78,-2.06 -4.6,-3.11 -1.82,-1.06 -3.88,-2.02 -6.15,-2.86 -2.27,-0.84 -4.72,-1.25 -7.34,-1.25 -3.09,0 -5.76,0.37 -7.99,1.11 -2.23,0.75 -4.07,1.72 -5.52,2.96 -1.45,1.23 -2.51,2.62 -3.19,4.17 -0.69,1.55 -1.04,3.11 -1.04,4.68 0,2.19 0.72,4.03 2.17,5.52 1.45,1.49 3.37,2.78 5.76,3.88 2.39,1.1 5.11,2.08 8.15,2.96 3.04,0.88 6.13,1.82 9.28,2.8 3.15,0.98 6.25,2.08 9.28,3.29 3.04,1.21 5.74,2.72 8.15,4.52 2.41,1.8 4.33,3.96 5.78,6.46 1.47,2.51 2.19,5.54 2.19,9.11 0,4.11 -0.86,7.83 -2.57,11.18 -1.72,3.35 -4.05,6.23 -7.03,8.6 -2.96,2.39 -6.44,4.23 -10.44,5.52 -3.99,1.31 -8.28,1.96 -12.87,1.96 -3.06,0 -6.07,-0.35 -9.07,-1.04 -3,-0.69 -5.88,-1.68 -8.64,-3.01 -2.76,-1.31 -5.35,-2.92 -7.74,-4.8 -2.39,-1.9 -4.52,-4.05 -6.4,-6.48 -0.51,-0.63 -0.74,-1.25 -0.72,-1.88 0.02,-0.63 0.35,-1.21 1.02,-1.76l4.64 -3.88c0.67,-0.55 1.31,-0.8 1.94,-0.74 0.63,0.06 1.19,0.41 1.7,1.04l0.76 0.76c1.64,1.84 3.52,3.43 5.62,4.78 2.09,1.35 4.19,2.47 6.28,3.35 2.1,0.88 4.09,1.55 6.01,1.98 1.92,0.43 3.54,0.65 4.88,0.65 2.39,0 4.84,-0.31 7.34,-0.94 2.51,-0.63 4.8,-1.59 6.87,-2.88 2.08,-1.29 3.78,-2.94 5.11,-4.92 1.33,-1.98 2,-4.29 2,-6.95 0,-2.23 -0.65,-4.13 -1.96,-5.68 -1.31,-1.55 -3.1,-2.9 -5.33,-4.05 -2.23,-1.15 -4.84,-2.19 -7.83,-3.11 -3,-0.92 -6.21,-1.88 -9.61,-2.9 -4.7,-1.37 -8.73,-2.82 -12.1,-4.33 -3.37,-1.51 -6.13,-3.17 -8.3,-4.99 -2.17,-1.82 -3.78,-3.86 -4.8,-6.11 -1.02,-2.25 -1.53,-4.78 -1.53,-7.6 0,-3.57 0.72,-6.84 2.15,-9.79 1.43,-2.96 3.45,-5.5 6.07,-7.66 2.62,-2.15 5.8,-3.84 9.5,-5.03 3.7,-1.19 7.83,-1.78 12.42,-1.78 2.47,0 5.03,0.31 7.7,0.94 2.66,0.63 5.27,1.49 7.79,2.6 2.52,1.12 4.9,2.45 7.11,3.99 2.23,1.55 4.13,3.27 5.76,5.15 0.55,0.59 0.84,1.19 0.86,1.84 0.02,0.65 -0.29,1.27 -0.92,1.86l-4.19 3.99c-0.63,0.59 -1.27,0.86 -1.92,0.82 -0.65,-0.04 -1.25,-0.33 -1.8,-0.88zm81.19 51.17c0.35,-0.31 0.74,-0.61 1.15,-0.88 0.41,-0.27 0.82,-0.41 1.25,-0.41 0.59,0 1.15,0.35 1.7,1.06 0.78,1.06 1.43,1.92 1.92,2.58 0.49,0.67 0.88,1.19 1.19,1.59 0.31,0.43 0.55,0.74 0.71,0.94 0.19,0.23 0.35,0.47 0.47,0.72 0.12,0.25 0.18,0.55 0.18,0.86 0,0.43 -0.16,0.9 -0.49,1.39 -0.33,0.49 -0.92,1.06 -1.74,1.74 -1.68,1.33 -3.43,2.55 -5.25,3.62 -1.82,1.08 -3.74,2.02 -5.74,2.8 -2,0.8 -4.09,1.41 -6.31,1.84 -2.21,0.43 -4.56,0.65 -7.03,0.65 -3.49,0 -6.85,-0.47 -10.11,-1.39 -3.25,-0.92 -6.31,-2.23 -9.18,-3.94 -2.88,-1.7 -5.5,-3.74 -7.87,-6.09 -2.37,-2.35 -4.43,-4.95 -6.15,-7.81 -1.72,-2.88 -3.06,-5.93 -3.99,-9.22 -0.94,-3.27 -1.41,-6.68 -1.41,-10.2 0,-3.52 0.45,-6.95 1.33,-10.24 0.88,-3.29 2.13,-6.36 3.76,-9.24 1.63,-2.86 3.58,-5.46 5.89,-7.81 2.31,-2.35 4.91,-4.39 7.79,-6.07 2.88,-1.68 5.99,-2.98 9.34,-3.9 3.35,-0.92 6.87,-1.39 10.59,-1.39 2.94,0 5.85,0.33 8.75,1 2.9,0.66 5.68,1.64 8.34,2.92 2.66,1.27 5.17,2.84 7.5,4.74 2.33,1.88 4.41,4.03 6.25,6.46 2.51,3.37 4.37,7.23 5.58,11.53 1.21,4.31 1.78,9.26 1.7,14.88 0,1.84 -0.86,2.76 -2.58,2.76l-61.92 0c0.67,3.13 1.84,6.03 3.5,8.69 1.67,2.66 3.66,4.97 5.99,6.95 2.33,1.98 4.91,3.53 7.77,4.64 2.86,1.12 5.82,1.68 8.87,1.68 2.15,0 4.11,-0.22 5.85,-0.63 1.74,-0.41 3.33,-0.96 4.76,-1.64 1.43,-0.69 2.74,-1.47 3.96,-2.35 1.21,-0.88 2.39,-1.78 3.53,-2.72l0.12 -0.12zm-32.19 -43.47c-2.98,2 -5.54,4.5 -7.7,7.54 -2.15,3.04 -3.62,6.38 -4.41,10.03l53.11 0c-0.43,-3.25 -1.43,-6.21 -3.02,-8.87 -1.59,-2.66 -3.58,-4.94 -5.97,-6.81 -2.39,-1.88 -5.07,-3.35 -8.07,-4.39 -3,-1.04 -6.11,-1.55 -9.32,-1.55 -2.55,0 -5.05,0.33 -7.54,1 -2.49,0.67 -4.86,1.68 -7.09,3.06zm119.67 43.59c0.27,-0.23 0.59,-0.49 0.92,-0.74 0.33,-0.26 0.69,-0.43 1.06,-0.55 0.37,-0.12 0.74,-0.12 1.12,0 0.37,0.12 0.74,0.43 1.14,0.94 0.78,1.06 1.43,1.92 1.92,2.58 0.49,0.67 0.88,1.19 1.19,1.59 0.31,0.43 0.55,0.74 0.71,0.94 0.19,0.31 0.37,0.63 0.51,0.94 0.14,0.31 0.16,0.65 0.08,1.02 -0.08,0.37 -0.27,0.8 -0.61,1.25 -0.33,0.45 -0.86,0.94 -1.57,1.51 -1.68,1.33 -3.43,2.55 -5.25,3.62 -1.82,1.08 -3.74,2.02 -5.74,2.8 -2,0.8 -4.09,1.41 -6.31,1.84 -2.21,0.43 -4.56,0.65 -7.03,0.65 -3.49,0 -6.85,-0.47 -10.11,-1.39 -3.25,-0.92 -6.31,-2.23 -9.18,-3.94 -2.88,-1.7 -5.5,-3.74 -7.87,-6.09 -2.37,-2.35 -4.43,-4.95 -6.15,-7.81 -1.72,-2.88 -3.06,-5.93 -3.99,-9.22 -0.94,-3.27 -1.41,-6.68 -1.41,-10.2 0,-3.52 0.47,-6.93 1.41,-10.2 0.94,-3.29 2.27,-6.34 3.99,-9.22 1.72,-2.86 3.78,-5.46 6.15,-7.81 2.37,-2.35 4.99,-4.39 7.87,-6.09 2.88,-1.7 5.93,-3.02 9.18,-3.94 3.25,-0.92 6.62,-1.39 10.11,-1.39 2.19,0 4.39,0.19 6.56,0.61 2.17,0.41 4.27,0.98 6.29,1.7 2.02,0.72 3.92,1.59 5.7,2.57 1.78,0.98 3.37,2.04 4.78,3.17 0.27,0.23 0.61,0.49 0.98,0.78 0.37,0.29 0.69,0.63 0.94,1 0.26,0.37 0.41,0.78 0.49,1.23 0.08,0.45 -0.02,0.94 -0.29,1.45l-4.29 5.64c-1.02,1.33 -2.19,1.31 -3.52,-0.06 -1.06,-1.1 -2.27,-2.1 -3.64,-2.98 -1.37,-0.88 -2.84,-1.64 -4.41,-2.29 -1.57,-0.65 -3.19,-1.14 -4.87,-1.49 -1.68,-0.35 -3.35,-0.53 -4.99,-0.53 -3.45,0 -6.78,0.74 -9.99,2.23 -3.21,1.49 -6.05,3.5 -8.52,6.05 -2.47,2.57 -4.45,5.52 -5.93,8.89 -1.49,3.37 -2.23,6.91 -2.23,10.63 0,3.78 0.75,7.32 2.21,10.69 1.47,3.35 3.43,6.27 5.89,8.79 2.47,2.51 5.33,4.48 8.56,5.95 3.23,1.47 6.58,2.21 10.07,2.21 2.15,0 4.11,-0.22 5.85,-0.63 1.74,-0.41 3.33,-0.96 4.76,-1.64 1.43,-0.69 2.74,-1.47 3.96,-2.35 1.21,-0.88 2.39,-1.78 3.53,-2.72zm71.85 8.28c-1.14,1.37 -2.31,2.58 -3.54,3.66 -1.23,1.08 -2.62,2 -4.17,2.74 -1.55,0.74 -3.31,1.31 -5.27,1.7 -1.96,0.39 -4.23,0.59 -6.81,0.59 -4.82,0 -9.07,-0.84 -12.75,-2.51 -3.68,-1.66 -6.76,-3.94 -9.24,-6.81 -2.49,-2.88 -4.37,-6.25 -5.64,-10.12 -1.27,-3.88 -1.92,-8.03 -1.92,-12.45l0 -39.89c0,-1.33 0.35,-2.33 1.04,-3 0.69,-0.67 1.55,-1 2.6,-1l4.35 0c1.45,0 2.39,0.29 2.8,0.88 0.41,0.59 0.61,1.57 0.61,2.94l0 40.07c0,2.35 0.33,4.74 0.98,7.19 0.65,2.45 1.7,4.68 3.17,6.68 1.47,2 3.41,3.62 5.84,4.88 2.43,1.25 5.4,1.88 8.93,1.88 2.23,0 4.48,-0.41 6.73,-1.21 2.25,-0.8 4.29,-1.98 6.11,-3.54 1.82,-1.57 3.31,-3.51 4.46,-5.8 1.16,-2.29 1.72,-4.94 1.72,-7.95l0 -43.41c0,-1.72 0.86,-2.58 2.58,-2.58l6.05 0c1.84,0 2.76,0.86 2.76,2.58l0 69.44c0,0.78 -0.26,1.41 -0.76,1.88 -0.51,0.47 -1.12,0.7 -1.82,0.7l-6.11 0c-0.82,0 -1.47,-0.25 -1.96,-0.76 -0.49,-0.51 -0.74,-1.12 -0.74,-1.82l0 -4.94zm39.65 -56.05c1.1,-1.37 2.33,-2.72 3.7,-4.03 1.37,-1.31 2.92,-2.49 4.62,-3.53 1.7,-1.04 3.58,-1.88 5.66,-2.53 2.08,-0.65 4.41,-0.96 6.99,-0.96 4.82,0 9.07,0.82 12.75,2.49 3.68,1.67 6.77,3.94 9.26,6.81 2.49,2.88 4.37,6.27 5.64,10.14 1.27,3.88 1.9,8.03 1.9,12.45l0 39.89c0,1.33 -0.33,2.33 -1.02,3 -0.69,0.67 -1.57,1 -2.62,1l-4.35 0c-1.45,0 -2.37,-0.29 -2.78,-0.88 -0.41,-0.59 -0.63,-1.57 -0.63,-2.94l0 -40.07c0,-2.35 -0.31,-4.76 -0.96,-7.21 -0.65,-2.45 -1.7,-4.66 -3.17,-6.66 -1.47,-2 -3.43,-3.62 -5.85,-4.88 -2.43,-1.25 -5.4,-1.88 -8.93,-1.88 -2.23,0 -4.54,0.39 -6.93,1.19 -2.39,0.8 -4.56,2 -6.52,3.56 -1.96,1.57 -3.56,3.51 -4.84,5.82 -1.27,2.31 -1.92,4.95 -1.92,7.93l0 43.41c0,1.72 -0.86,2.58 -2.58,2.58l-6.05 0c-1.84,0 -2.76,-0.86 -2.76,-2.58l0 -69.44c0,-0.78 0.26,-1.41 0.76,-1.88 0.51,-0.47 1.12,-0.7 1.82,-0.7l6.11 0c0.82,0 1.49,0.25 1.98,0.76 0.49,0.51 0.72,1.12 0.72,1.82l0 7.28zm129.77 64.74c-1.72,0 -2.58,-0.86 -2.58,-2.57l0 -7.09c-3.37,3.47 -7.28,6.17 -11.77,8.13 -4.46,1.96 -9.3,2.94 -14.51,2.94 -3.49,0 -6.87,-0.47 -10.14,-1.39 -3.27,-0.92 -6.34,-2.21 -9.2,-3.9 -2.86,-1.7 -5.46,-3.72 -7.81,-6.07 -2.37,-2.35 -4.39,-4.95 -6.09,-7.81 -1.7,-2.88 -3.01,-5.93 -3.94,-9.22 -0.92,-3.27 -1.39,-6.68 -1.39,-10.2 0,-3.53 0.47,-6.93 1.39,-10.2 0.92,-3.29 2.23,-6.36 3.94,-9.24 1.7,-2.88 3.72,-5.5 6.09,-7.85 2.35,-2.35 4.95,-4.39 7.81,-6.09 2.86,-1.7 5.91,-3.02 9.16,-3.94 3.25,-0.92 6.66,-1.39 10.18,-1.39 5.21,0 10.05,1 14.51,2.98 4.48,1.98 8.4,4.7 11.77,8.17l0 -29.47c0,-0.71 0.26,-1.31 0.75,-1.82 0.49,-0.51 1.14,-0.76 1.96,-0.76l6.11 0c0.71,0 1.31,0.23 1.82,0.7 0.51,0.47 0.76,1.1 0.76,1.88l0 91.65c0,1.72 -0.92,2.58 -2.76,2.58l-6.05 0zm-2 -37.23c0,-3.64 -0.71,-7.15 -2.12,-10.52 -1.41,-3.37 -3.33,-6.34 -5.76,-8.91 -2.43,-2.56 -5.27,-4.62 -8.54,-6.15 -3.27,-1.53 -6.76,-2.29 -10.44,-2.29 -3.68,0 -7.13,0.76 -10.36,2.29 -3.23,1.53 -6.05,3.58 -8.46,6.15 -2.41,2.57 -4.31,5.54 -5.7,8.91 -1.39,3.37 -2.09,6.87 -2.09,10.52 0,3.74 0.7,7.26 2.09,10.59 1.39,3.33 3.29,6.25 5.7,8.77 2.41,2.51 5.23,4.5 8.46,5.99 3.23,1.49 6.68,2.23 10.36,2.23 3.68,0 7.17,-0.75 10.44,-2.23 3.27,-1.49 6.11,-3.49 8.54,-5.99 2.43,-2.53 4.35,-5.44 5.76,-8.77 1.41,-3.33 2.12,-6.85 2.12,-10.59z"/>
     <path class="fil0" d="M1534.53 166.7c-3.37,3.45 -7.28,6.15 -11.77,8.13 -4.46,1.98 -9.3,2.98 -14.51,2.98 -3.49,0 -6.87,-0.47 -10.14,-1.39 -3.27,-0.92 -6.34,-2.23 -9.2,-3.94 -2.86,-1.7 -5.46,-3.72 -7.81,-6.07 -2.37,-2.35 -4.39,-4.97 -6.09,-7.85 -1.7,-2.88 -3.01,-5.95 -3.94,-9.22 -0.92,-3.27 -1.39,-6.66 -1.39,-10.18 0,-3.52 0.47,-6.93 1.39,-10.2 0.92,-3.27 2.23,-6.33 3.94,-9.19 1.7,-2.86 3.72,-5.46 6.09,-7.81 2.35,-2.35 4.95,-4.37 7.81,-6.05 2.86,-1.68 5.91,-3 9.16,-3.92 3.25,-0.92 6.66,-1.37 10.18,-1.37 5.21,0 10.05,0.98 14.51,2.96 4.48,1.96 8.4,4.66 11.77,8.09l0 -7.17c0,-1.72 0.86,-2.58 2.58,-2.58l6.05 0c1.84,0 2.76,0.86 2.76,2.58l0 69.56c0,0.78 -0.26,1.41 -0.76,1.88 -0.51,0.47 -1.11,0.71 -1.82,0.71l-6.11 0c-0.82,0 -1.47,-0.26 -1.96,-0.76 -0.49,-0.51 -0.75,-1.11 -0.75,-1.82l0 -7.34zm0.59 -27.53c0,-3.66 -0.71,-7.19 -2.12,-10.52 -1.41,-3.35 -3.33,-6.29 -5.76,-8.77 -2.43,-2.51 -5.27,-4.51 -8.54,-5.99 -3.27,-1.49 -6.76,-2.23 -10.44,-2.23 -3.68,0 -7.13,0.74 -10.36,2.23 -3.23,1.49 -6.05,3.49 -8.46,5.99 -2.41,2.49 -4.31,5.42 -5.7,8.77 -1.39,3.33 -2.09,6.85 -2.09,10.52 0,3.64 0.7,7.15 2.09,10.52 1.39,3.37 3.29,6.32 5.7,8.89 2.41,2.56 5.23,4.6 8.46,6.13 3.23,1.53 6.68,2.29 10.36,2.29 3.68,0 7.17,-0.76 10.44,-2.29 3.27,-1.53 6.11,-3.57 8.54,-6.13 2.43,-2.57 4.35,-5.52 5.76,-8.89 1.41,-3.37 2.12,-6.87 2.12,-10.52zm38.66 -29.28c0.47,-0.9 1.15,-1.88 2.04,-2.94 0.88,-1.06 1.94,-2.04 3.19,-2.94 1.25,-0.9 2.68,-1.66 4.29,-2.27 1.61,-0.61 3.37,-0.9 5.29,-0.9 2.12,0 4.03,0.08 5.74,0.25 1.7,0.18 3.31,0.49 4.84,0.94 1.53,0.45 3.02,1.06 4.45,1.82 1.43,0.76 2.92,1.74 4.48,2.92 0.47,0.35 1,0.8 1.57,1.35 0.57,0.55 0.84,1.19 0.84,1.94 0,0.43 -0.1,0.82 -0.29,1.18l-3.47 5.35c-0.55,0.67 -1.1,1 -1.64,1 -0.31,0 -0.61,-0.12 -0.88,-0.33 -0.27,-0.22 -0.61,-0.45 -1,-0.72 -2.43,-1.64 -4.78,-2.86 -7.07,-3.62 -2.29,-0.76 -4.74,-1.14 -7.33,-1.14 -1.96,0 -3.84,0.37 -5.64,1.12 -1.8,0.74 -3.39,1.8 -4.78,3.19 -1.39,1.39 -2.51,3.09 -3.35,5.11 -0.84,2.02 -1.27,4.31 -1.27,6.85l0 46c0,1.72 -0.86,2.58 -2.58,2.58l-6.11 0c-1.8,0 -2.7,-0.86 -2.7,-2.58l0 -69.44c0,-0.78 0.26,-1.41 0.76,-1.88 0.51,-0.47 1.11,-0.7 1.82,-0.7l6.11 0c0.82,0 1.49,0.25 1.98,0.76 0.49,0.51 0.72,1.12 0.72,1.82l0 5.29zm61.1 64.15c0,1.72 -0.86,2.58 -2.58,2.58l-6.05 0c-1.84,0 -2.76,-0.86 -2.76,-2.58l0 -69.44c0,-0.78 0.26,-1.41 0.76,-1.88 0.51,-0.47 1.12,-0.7 1.82,-0.7l6.11 0c0.82,0 1.49,0.25 1.98,0.76 0.49,0.51 0.72,1.12 0.72,1.82l0 69.44zm0 -85.56c0,1.74 -0.86,2.6 -2.58,2.6l-6.05 0c-1.84,0 -2.76,-0.86 -2.76,-2.6l0 -6.07c0,-0.8 0.26,-1.43 0.76,-1.9 0.51,-0.47 1.12,-0.7 1.82,-0.7l6.11 0c0.82,0 1.49,0.25 1.98,0.74 0.49,0.49 0.72,1.1 0.72,1.86l0 6.07zm80.31 78.21c-3.37,3.45 -7.28,6.15 -11.77,8.13 -4.46,1.98 -9.3,2.98 -14.51,2.98 -3.49,0 -6.87,-0.47 -10.14,-1.39 -3.27,-0.92 -6.34,-2.23 -9.2,-3.94 -2.86,-1.7 -5.46,-3.72 -7.81,-6.07 -2.37,-2.35 -4.39,-4.97 -6.09,-7.85 -1.7,-2.88 -3.01,-5.95 -3.94,-9.22 -0.92,-3.27 -1.39,-6.66 -1.39,-10.18 0,-3.52 0.47,-6.93 1.39,-10.2 0.92,-3.27 2.23,-6.33 3.94,-9.19 1.7,-2.86 3.72,-5.46 6.09,-7.81 2.35,-2.35 4.95,-4.37 7.81,-6.05 2.86,-1.68 5.91,-3 9.16,-3.92 3.25,-0.92 6.66,-1.37 10.18,-1.37 5.21,0 10.05,0.98 14.51,2.96 4.48,1.96 8.4,4.66 11.77,8.09l0 -7.17c0,-1.72 0.86,-2.58 2.58,-2.58l6.05 0c1.84,0 2.76,0.86 2.76,2.58l0 69.56c0,0.78 -0.26,1.41 -0.76,1.88 -0.51,0.47 -1.11,0.71 -1.82,0.71l-6.11 0c-0.82,0 -1.47,-0.26 -1.96,-0.76 -0.49,-0.51 -0.75,-1.11 -0.75,-1.82l0 -7.34zm0.59 -27.53c0,-3.66 -0.71,-7.19 -2.12,-10.52 -1.41,-3.35 -3.33,-6.29 -5.76,-8.77 -2.43,-2.51 -5.27,-4.51 -8.54,-5.99 -3.27,-1.49 -6.76,-2.23 -10.44,-2.23 -3.68,0 -7.13,0.74 -10.36,2.23 -3.23,1.49 -6.05,3.49 -8.46,5.99 -2.41,2.49 -4.31,5.42 -5.7,8.77 -1.39,3.33 -2.09,6.85 -2.09,10.52 0,3.64 0.7,7.15 2.09,10.52 1.39,3.37 3.29,6.32 5.7,8.89 2.41,2.56 5.23,4.6 8.46,6.13 3.23,1.53 6.68,2.29 10.36,2.29 3.68,0 7.17,-0.76 10.44,-2.29 3.27,-1.53 6.11,-3.57 8.54,-6.13 2.43,-2.57 4.35,-5.52 5.76,-8.89 1.41,-3.37 2.12,-6.87 2.12,-10.52z"/>
    </g>
    <path class="fil0" d="M516.79 221.24c0.7,0 1.35,0.22 1.92,0.65 0.57,0.43 0.88,1.08 0.96,1.94l0 5.93c0,0.78 -0.23,1.45 -0.71,2.02 -0.47,0.57 -1.19,0.86 -2.17,0.86l-24.44 0 0 73.14c0,0.7 -0.23,1.33 -0.71,1.88 -0.47,0.55 -1.14,0.82 -2,0.82l-5.93 0c-0.7,0 -1.33,-0.26 -1.88,-0.76 -0.55,-0.51 -0.82,-1.15 -0.82,-1.94l0 -73.14 -24.56 0c-0.78,0 -1.43,-0.23 -1.94,-0.71 -0.51,-0.47 -0.76,-1.19 -0.76,-2.17l0 -5.93c0,-0.78 0.26,-1.41 0.76,-1.88 0.51,-0.47 1.16,-0.71 1.94,-0.71l60.33 0zm69.2 70.2c0.35,-0.31 0.74,-0.61 1.15,-0.88 0.41,-0.27 0.82,-0.41 1.25,-0.41 0.59,0 1.15,0.35 1.7,1.06 0.78,1.06 1.43,1.92 1.92,2.58 0.49,0.67 0.88,1.19 1.19,1.59 0.31,0.43 0.55,0.74 0.71,0.94 0.19,0.23 0.35,0.47 0.47,0.72 0.12,0.25 0.18,0.55 0.18,0.86 0,0.43 -0.16,0.9 -0.49,1.39 -0.33,0.49 -0.92,1.06 -1.74,1.74 -1.68,1.33 -3.43,2.55 -5.25,3.62 -1.82,1.08 -3.74,2.02 -5.74,2.8 -2,0.8 -4.09,1.41 -6.31,1.84 -2.21,0.43 -4.56,0.65 -7.03,0.65 -3.49,0 -6.85,-0.47 -10.11,-1.39 -3.25,-0.92 -6.31,-2.23 -9.18,-3.94 -2.88,-1.7 -5.5,-3.74 -7.87,-6.09 -2.37,-2.35 -4.43,-4.95 -6.15,-7.81 -1.72,-2.88 -3.06,-5.93 -3.99,-9.22 -0.94,-3.27 -1.41,-6.68 -1.41,-10.2 0,-3.52 0.45,-6.95 1.33,-10.24 0.88,-3.29 2.13,-6.36 3.76,-9.24 1.63,-2.86 3.58,-5.46 5.89,-7.81 2.31,-2.35 4.91,-4.39 7.79,-6.07 2.88,-1.68 5.99,-2.98 9.34,-3.9 3.35,-0.92 6.87,-1.39 10.59,-1.39 2.94,0 5.85,0.33 8.75,1 2.9,0.66 5.68,1.64 8.34,2.92 2.66,1.27 5.17,2.84 7.5,4.74 2.33,1.88 4.41,4.03 6.25,6.46 2.51,3.37 4.37,7.23 5.58,11.53 1.21,4.31 1.78,9.26 1.7,14.88 0,1.84 -0.86,2.76 -2.58,2.76l-61.92 0c0.67,3.13 1.84,6.03 3.5,8.69 1.67,2.66 3.66,4.97 5.99,6.95 2.33,1.98 4.91,3.53 7.77,4.64 2.86,1.12 5.82,1.68 8.87,1.68 2.15,0 4.11,-0.22 5.85,-0.63 1.74,-0.41 3.33,-0.96 4.76,-1.64 1.43,-0.69 2.74,-1.47 3.96,-2.35 1.21,-0.88 2.39,-1.78 3.53,-2.72l0.12 -0.12zm-32.19 -43.47c-2.98,2 -5.54,4.5 -7.7,7.54 -2.15,3.04 -3.62,6.38 -4.41,10.03l53.11 0c-0.43,-3.25 -1.43,-6.21 -3.02,-8.87 -1.59,-2.66 -3.58,-4.94 -5.97,-6.81 -2.39,-1.88 -5.07,-3.35 -8.07,-4.39 -3,-1.04 -6.11,-1.55 -9.32,-1.55 -2.55,0 -5.05,0.33 -7.54,1 -2.49,0.67 -4.86,1.68 -7.09,3.06zm119.67 43.59c0.27,-0.23 0.59,-0.49 0.92,-0.74 0.33,-0.26 0.69,-0.43 1.06,-0.55 0.37,-0.12 0.74,-0.12 1.12,0 0.37,0.12 0.74,0.43 1.14,0.94 0.78,1.06 1.43,1.92 1.92,2.58 0.49,0.67 0.88,1.19 1.19,1.59 0.31,0.43 0.55,0.74 0.71,0.94 0.19,0.31 0.37,0.63 0.51,0.94 0.14,0.31 0.16,0.65 0.08,1.02 -0.08,0.37 -0.27,0.8 -0.61,1.25 -0.33,0.45 -0.86,0.94 -1.57,1.51 -1.68,1.33 -3.43,2.55 -5.25,3.62 -1.82,1.08 -3.74,2.02 -5.74,2.8 -2,0.8 -4.09,1.41 -6.31,1.84 -2.21,0.43 -4.56,0.65 -7.03,0.65 -3.49,0 -6.85,-0.47 -10.11,-1.39 -3.25,-0.92 -6.31,-2.23 -9.18,-3.94 -2.88,-1.7 -5.5,-3.74 -7.87,-6.09 -2.37,-2.35 -4.43,-4.95 -6.15,-7.81 -1.72,-2.88 -3.06,-5.93 -3.99,-9.22 -0.94,-3.27 -1.41,-6.68 -1.41,-10.2 0,-3.52 0.47,-6.93 1.41,-10.2 0.94,-3.29 2.27,-6.34 3.99,-9.22 1.72,-2.86 3.78,-5.46 6.15,-7.81 2.37,-2.35 4.99,-4.39 7.87,-6.09 2.88,-1.7 5.93,-3.02 9.18,-3.94 3.25,-0.92 6.62,-1.39 10.11,-1.39 2.19,0 4.39,0.19 6.56,0.61 2.17,0.41 4.27,0.98 6.29,1.7 2.02,0.72 3.92,1.59 5.7,2.57 1.78,0.98 3.37,2.04 4.78,3.17 0.27,0.23 0.61,0.49 0.98,0.78 0.37,0.29 0.69,0.63 0.94,1 0.26,0.37 0.41,0.78 0.49,1.23 0.08,0.45 -0.02,0.94 -0.29,1.45l-4.29 5.64c-1.02,1.33 -2.19,1.31 -3.52,-0.06 -1.06,-1.1 -2.27,-2.1 -3.64,-2.98 -1.37,-0.88 -2.84,-1.64 -4.41,-2.29 -1.57,-0.65 -3.19,-1.14 -4.87,-1.49 -1.68,-0.35 -3.35,-0.53 -4.99,-0.53 -3.45,0 -6.78,0.74 -9.99,2.23 -3.21,1.49 -6.05,3.5 -8.52,6.05 -2.47,2.57 -4.45,5.52 -5.93,8.89 -1.49,3.37 -2.23,6.91 -2.23,10.63 0,3.78 0.75,7.32 2.21,10.69 1.47,3.35 3.43,6.27 5.89,8.79 2.47,2.51 5.33,4.48 8.56,5.95 3.23,1.47 6.58,2.21 10.07,2.21 2.15,0 4.11,-0.22 5.85,-0.63 1.74,-0.41 3.33,-0.96 4.76,-1.64 1.43,-0.69 2.74,-1.47 3.96,-2.35 1.21,-0.88 2.39,-1.78 3.53,-2.72zm33.9 -47.76c1.1,-1.37 2.33,-2.72 3.7,-4.03 1.37,-1.31 2.92,-2.49 4.62,-3.53 1.7,-1.04 3.58,-1.88 5.66,-2.53 2.08,-0.65 4.41,-0.96 6.99,-0.96 4.82,0 9.07,0.82 12.75,2.49 3.68,1.67 6.77,3.94 9.26,6.81 2.49,2.88 4.37,6.27 5.64,10.14 1.27,3.88 1.9,8.03 1.9,12.45l0 39.89c0,1.33 -0.33,2.33 -1.02,3 -0.69,0.67 -1.57,1 -2.62,1l-4.35 0c-1.45,0 -2.37,-0.29 -2.78,-0.88 -0.41,-0.59 -0.63,-1.57 -0.63,-2.94l0 -40.07c0,-2.35 -0.31,-4.76 -0.96,-7.21 -0.65,-2.45 -1.7,-4.66 -3.17,-6.66 -1.47,-2 -3.43,-3.62 -5.85,-4.88 -2.43,-1.25 -5.4,-1.88 -8.93,-1.88 -2.23,0 -4.54,0.39 -6.93,1.19 -2.39,0.8 -4.56,2 -6.52,3.56 -1.96,1.57 -3.56,3.51 -4.84,5.82 -1.27,2.31 -1.92,4.95 -1.92,7.93l0 43.41c0,1.72 -0.86,2.58 -2.58,2.58l-6.05 0c-1.84,0 -2.76,-0.86 -2.76,-2.58l0 -69.44c0,-0.78 0.26,-1.41 0.76,-1.88 0.51,-0.47 1.12,-0.7 1.82,-0.7l6.11 0c0.82,0 1.49,0.25 1.98,0.76 0.49,0.51 0.72,1.12 0.72,1.82l0 7.28zm77.25 62.16c0,1.72 -0.86,2.58 -2.58,2.58l-6.05 0c-1.84,0 -2.76,-0.86 -2.76,-2.58l0 -69.44c0,-0.78 0.26,-1.41 0.76,-1.88 0.51,-0.47 1.12,-0.7 1.82,-0.7l6.11 0c0.82,0 1.49,0.25 1.98,0.76 0.49,0.51 0.72,1.12 0.72,1.82l0 69.44zm0 -85.56c0,1.74 -0.86,2.6 -2.58,2.6l-6.05 0c-1.84,0 -2.76,-0.86 -2.76,-2.6l0 -6.07c0,-0.8 0.26,-1.43 0.76,-1.9 0.51,-0.47 1.12,-0.7 1.82,-0.7l6.11 0c0.82,0 1.49,0.25 1.98,0.74 0.49,0.49 0.72,1.1 0.72,1.86l0 6.07zm70.5 71.16c0.27,-0.23 0.59,-0.49 0.92,-0.74 0.33,-0.26 0.69,-0.43 1.06,-0.55 0.37,-0.12 0.74,-0.12 1.12,0 0.37,0.12 0.74,0.43 1.14,0.94 0.78,1.06 1.43,1.92 1.92,2.58 0.49,0.67 0.88,1.19 1.19,1.59 0.31,0.43 0.55,0.74 0.71,0.94 0.19,0.31 0.37,0.63 0.51,0.94 0.14,0.31 0.16,0.65 0.08,1.02 -0.08,0.37 -0.27,0.8 -0.61,1.25 -0.33,0.45 -0.86,0.94 -1.57,1.51 -1.68,1.33 -3.43,2.55 -5.25,3.62 -1.82,1.08 -3.74,2.02 -5.74,2.8 -2,0.8 -4.09,1.41 -6.31,1.84 -2.21,0.43 -4.56,0.65 -7.03,0.65 -3.49,0 -6.85,-0.47 -10.11,-1.39 -3.25,-0.92 -6.31,-2.23 -9.18,-3.94 -2.88,-1.7 -5.5,-3.74 -7.87,-6.09 -2.37,-2.35 -4.43,-4.95 -6.15,-7.81 -1.72,-2.88 -3.06,-5.93 -3.99,-9.22 -0.94,-3.27 -1.41,-6.68 -1.41,-10.2 0,-3.52 0.47,-6.93 1.41,-10.2 0.94,-3.29 2.27,-6.34 3.99,-9.22 1.72,-2.86 3.78,-5.46 6.15,-7.81 2.37,-2.35 4.99,-4.39 7.87,-6.09 2.88,-1.7 5.93,-3.02 9.18,-3.94 3.25,-0.92 6.62,-1.39 10.11,-1.39 2.19,0 4.39,0.19 6.56,0.61 2.17,0.41 4.27,0.98 6.29,1.7 2.02,0.72 3.92,1.59 5.7,2.57 1.78,0.98 3.37,2.04 4.78,3.17 0.27,0.23 0.61,0.49 0.98,0.78 0.37,0.29 0.69,0.63 0.94,1 0.26,0.37 0.41,0.78 0.49,1.23 0.08,0.45 -0.02,0.94 -0.29,1.45l-4.29 5.64c-1.02,1.33 -2.19,1.31 -3.52,-0.06 -1.06,-1.1 -2.27,-2.1 -3.64,-2.98 -1.37,-0.88 -2.84,-1.64 -4.41,-2.29 -1.57,-0.65 -3.19,-1.14 -4.87,-1.49 -1.68,-0.35 -3.35,-0.53 -4.99,-0.53 -3.45,0 -6.78,0.74 -9.99,2.23 -3.21,1.49 -6.05,3.5 -8.52,6.05 -2.47,2.57 -4.45,5.52 -5.93,8.89 -1.49,3.37 -2.23,6.91 -2.23,10.63 0,3.78 0.75,7.32 2.21,10.69 1.47,3.35 3.43,6.27 5.89,8.79 2.47,2.51 5.33,4.48 8.56,5.95 3.23,1.47 6.58,2.21 10.07,2.21 2.15,0 4.11,-0.22 5.85,-0.63 1.74,-0.41 3.33,-0.96 4.76,-1.64 1.43,-0.69 2.74,-1.47 3.96,-2.35 1.21,-0.88 2.39,-1.78 3.53,-2.72zm83.83 7.05c-3.37,3.45 -7.28,6.15 -11.77,8.13 -4.46,1.98 -9.3,2.98 -14.51,2.98 -3.49,0 -6.87,-0.47 -10.14,-1.39 -3.27,-0.92 -6.34,-2.23 -9.2,-3.94 -2.86,-1.7 -5.46,-3.72 -7.81,-6.07 -2.37,-2.35 -4.39,-4.97 -6.09,-7.85 -1.7,-2.88 -3.01,-5.95 -3.94,-9.22 -0.92,-3.27 -1.39,-6.66 -1.39,-10.18 0,-3.52 0.47,-6.93 1.39,-10.2 0.92,-3.27 2.23,-6.33 3.94,-9.19 1.7,-2.86 3.72,-5.46 6.09,-7.81 2.35,-2.35 4.95,-4.37 7.81,-6.05 2.86,-1.68 5.91,-3 9.16,-3.92 3.25,-0.92 6.66,-1.37 10.18,-1.37 5.21,0 10.05,0.98 14.51,2.96 4.48,1.96 8.4,4.66 11.77,8.09l0 -7.17c0,-1.72 0.86,-2.58 2.58,-2.58l6.05 0c1.84,0 2.76,0.86 2.76,2.58l0 69.56c0,0.78 -0.26,1.41 -0.76,1.88 -0.51,0.47 -1.11,0.71 -1.82,0.71l-6.11 0c-0.82,0 -1.47,-0.26 -1.96,-0.76 -0.49,-0.51 -0.75,-1.11 -0.75,-1.82l0 -7.34zm0.59 -27.53c0,-3.66 -0.71,-7.19 -2.12,-10.52 -1.41,-3.35 -3.33,-6.29 -5.76,-8.77 -2.43,-2.51 -5.27,-4.51 -8.54,-5.99 -3.27,-1.49 -6.76,-2.23 -10.44,-2.23 -3.68,0 -7.13,0.74 -10.36,2.23 -3.23,1.49 -6.05,3.49 -8.46,5.99 -2.41,2.49 -4.31,5.42 -5.7,8.77 -1.39,3.33 -2.09,6.85 -2.09,10.52 0,3.64 0.7,7.15 2.09,10.52 1.39,3.37 3.29,6.32 5.7,8.89 2.41,2.56 5.23,4.6 8.46,6.13 3.23,1.53 6.68,2.29 10.36,2.29 3.68,0 7.17,-0.76 10.44,-2.29 3.27,-1.53 6.11,-3.57 8.54,-6.13 2.43,-2.57 4.35,-5.52 5.76,-8.89 1.41,-3.37 2.12,-6.87 2.12,-10.52z"/>
   </g>
   <g>
    <path class="fil1" d="M205.36 356.77c1.72,-0.46 2.24,-1.49 3.49,-2.33l0 33 -3.49 0 0 -30.67zm-8.15 5.05c2.41,0.56 1.75,0 3.49,-1.16l0 26.79 -3.49 0 0 -25.62zm-8.15 -6.21c1.03,0.27 1.25,0.59 2.18,1.31 0.68,0.52 1.7,1.21 1.7,2.18l0 28.34 -3.88 0 0 -31.83zm-15.92 -12.04c2.34,1.24 2.47,1.95 3.88,2.33l0 31.83c-0.84,-1.2 -0.73,-2.23 -1.11,-3.54 -0.63,-2.17 -2.75,-9.8 -2.79,-11.58 -0.14,-6.26 0.02,-12.75 0.02,-19.04zm48.14 31.45l-0.01 -26.8c-0.03,-2.72 -0.54,-3.1 3.51,-5.81 0,5.96 0.01,11.92 0.01,17.87 0,1.48 -2.33,12.88 -3.51,14.74zm-36.49 10.09l0 2.33 -3.49 0 0 -37.66c1.65,0.44 3.33,1.69 3.63,3.66l0.03 30.34c-0.05,1.08 -0.17,0.16 -0.17,1.33zm32.22 -31.06l-0.02 31.54c0,2.18 0.01,1.85 -3.87,1.85l0 -35.33c0,-1.2 2.62,-2.91 3.49,-3.49 0.41,0.89 0.14,3.03 0.27,4.6 0,0.01 0.11,0.51 0.11,0.84zm12.03 -6.21c0,-2.07 -0.21,-5.48 -0.01,-7.39 0.15,-1.46 0.46,-1.59 1.49,-2.39 0.79,-0.62 1.48,-1.23 2.41,-1.48l0 10.48c-1.54,0.13 -2.34,0.65 -3.88,0.78zm-63.67 -10.09c4.77,1.27 3.49,5.53 3.49,10.09 -1.26,-0.03 -2.65,-0.37 -3.49,-0.78l0 -9.32zm71.82 8.15c0,-3.24 0.03,-6.48 -0.01,-9.72 -0.03,-2.78 -0.4,-3.54 3.89,-5.81l0 14.75c-1.57,0.04 -2.56,0.47 -3.88,0.78zm-79.97 -14.36c1.33,0.36 1.45,0.96 3.49,2.33l0 12.03c-1.28,-0.11 -2.33,-0.5 -3.49,-0.78l0 -13.59zm-7.76 -5.82c1.33,0.36 1.45,0.96 3.49,2.33l0 16.3c-1.06,-0.56 -1.99,-1.04 -3.49,-1.16l0 -17.47zm95.52 18.3c-0.02,-3.94 -0.01,-7.82 -0.02,-11.7 -0,-1.73 -0.33,-4.26 0.47,-5.35 0.38,-0.53 2.75,-2.06 3.41,-2.41l0 18.24 -3.86 1.22zm79.95 0.33l0 -77.64c0.44,-0.23 0.8,-0.36 1.27,-0.67 1.39,-0.93 0.62,-0.16 1.11,-1.22 0.24,-0.51 0.2,-0.74 0.42,-1.52l0.7 78.73c-2.07,0.55 -1.42,1.78 -3.49,2.33zm-255.44 -79.19c4.1,2.75 3.53,2.77 3.5,6.6l-0 72.99c-4.08,-2.16 -3.52,-3.52 -3.5,-6.6l0 -72.99zm247.68 7.38c1.3,-0.35 2.43,-1.62 3.49,-2.33l0 72.6c-1.2,-0.8 -2.19,-1.64 -3.49,-2.33l0 -67.94zm-64.05 68.33l0 -19.02c0,-1.37 2.48,-2.57 3.49,-3.11l0 21.35c-1.44,0.34 -1.74,0.74 -3.49,0.78zm-111.81 -21.35c1.31,0.69 2.3,1.53 3.49,2.33l0 19.41c-1.11,-0.26 -2.57,-0.72 -3.49,-1.16l0 -20.58zm119.96 18.63l0 -23.29c1.2,-0.8 2.19,-1.64 3.49,-2.33l0 24.07 -3.49 1.55zm-199.93 -3.88l0 -37.66c0,-0.71 2.74,-4.56 3.49,-5.44l0 46.59c-0.94,-0.63 -3.49,-2.14 -3.49,-3.49zm271.75 3.11l0 -45.42c0.86,0.63 3.49,4.36 3.49,5.82l0 36.1c0,1.36 -2.48,2.96 -3.49,3.49zm-24.07 -3.49l0 -54.35c0,-1.06 2.89,-2.84 3.88,-3.11l0 60.56c-0.99,-0.27 -3.88,-2.05 -3.88,-3.11zm-223.61 2.72l0 -59.4c1.06,0.71 2.19,1.98 3.49,2.33l0 54.74c-1.65,0.87 -1.84,1.45 -3.49,2.33zm39.99 -29.12c1.17,0.78 2.33,1.55 3.49,2.33l0 24.84 -3.49 -1.55 0 -25.62zm143.64 26.79l0 -25.23c0.65,-0.43 1.12,-0.76 1.82,-1.29 0.97,-0.73 0.7,-0.72 2.06,-1.04l0 26.01c-1.98,0.46 -2.12,1.41 -3.88,1.55zm35.71 -52.02l0 48.91c-2.34,-1.24 -2.47,-1.95 -3.88,-2.33 0,-2.74 -0.46,-41.98 0.25,-43.62 0.4,-0.92 0.86,-1.01 1.61,-1.5 0.93,-0.61 1.24,-0.94 2.03,-1.46zm-27.56 48.14l0 -27.56c1.65,-0.87 1.84,-1.45 3.49,-2.33l0 27.95c-1.19,0.32 -2.31,1.31 -3.49,1.94zm-159.94 -29.12c1.2,0.8 2.19,1.64 3.49,2.33l0 26.79c-1.47,-0.34 -2.37,-1.19 -3.49,-1.94l0 -27.18zm-24.07 29.5l0 -47.36c1.84,0.49 2.18,1.88 3.88,2.33l0 42.7c-1.47,0.78 -2.39,1.93 -3.88,2.33zm248.07 -0.39l0 -26.4c1.14,0.83 0.51,0.49 1.34,1.76 0.52,0.78 0.98,1.21 1.48,2.02 1.04,1.67 0.67,3.81 0.67,6.32 -0,4.66 0,9.32 0,13.98 -2.07,0.55 -1.42,1.78 -3.49,2.33zm-288.05 -3.1l0 -18.63c0,-0.67 1.24,-2.25 1.7,-2.95 0.77,-1.16 1.11,-1.77 2.18,-2.48l0 27.95c-1.01,-0.68 -3.88,-2.43 -3.88,-3.88zm232.15 -1.94l0 -28.73c1.31,-0.69 2.3,-1.53 3.49,-2.33l0 29.12c-1.13,0.3 -2.59,1.33 -3.49,1.94zm-176.25 -29.89c1.49,0.4 2.41,1.55 3.88,2.33l0 27.95c-1.3,-0.69 -2.69,-1.53 -3.88,-2.33l0 -27.95zm184.01 26.79l0 -30.67c0,-1.07 2.7,-2.57 3.49,-3.11l0 36.88c-1.02,-0.54 -3.49,-1.74 -3.49,-3.11zm-191.78 2.72l0 -35.33c0.99,0.27 3.88,2.05 3.88,3.11l0 29.12c0,1.06 -2.89,2.84 -3.88,3.11zm-55.9 -4.27c0,-1.67 3.41,-5.87 3.88,-6.21l0 9.7c-1.33,-0.36 -0.99,-0.5 -2.12,-1.37 -0.77,-0.59 -1.76,-0.99 -1.76,-2.12zm303.58 3.11l0 -8.15 3.49 5.05c-0.85,1.27 -2.22,2.25 -3.49,3.11zm-215.84 -10.09c1.36,0.32 1.09,0.31 2.06,1.04 0.7,0.53 1.17,0.85 1.82,1.29l0 22.52c-0.82,-0.19 -2.33,-0.82 -2.99,-1.31 -0.85,-0.64 -0.5,-0.23 -0.72,-0.98 -0.25,-0.84 -0,0.01 -0.09,-0.75 -0.44,-3.87 0.46,-20.47 -0.09,-21.8zm39.99 -10.87c1.22,0.28 2.72,1.33 3.88,1.94l0 10.87c-2.04,-0.17 -0.22,-0.01 -3.88,-1.94l0 -10.87zm48.14 12.42l0 -11.26c1.24,-0.83 2.15,-1.23 3.49,-1.94l0 11.26c-0.91,0.61 -2.36,1.64 -3.49,1.94zm7.76 -4.66c0,-1.81 0,-3.62 0,-5.44l0.08 -4.58c0.02,-0.1 0.06,-0.22 0.09,-0.3 0.41,-1.54 1.72,-2.35 3.72,-2.88l0 11.26c-1.58,0.42 -2.3,1.52 -3.88,1.94zm-71.82 -17.08c1.34,0.71 2.25,1.11 3.49,1.94l0 10.48c-1.67,-0.39 -2.06,-1.17 -3.49,-1.55l0 -10.87zm79.97 12.03l0 -10.87c1.16,-0.61 2.66,-1.66 3.88,-1.94l0 10.87c-1.4,0.74 -2.2,1.55 -3.88,1.94zm-87.74 -16.69c1.24,0.83 2.15,1.23 3.49,1.94l0 10.87c-1.18,-0.62 -2.31,-1.62 -3.49,-1.94l0 -10.87zm95.5 12.03l0 -10.87c1.22,-0.28 2.72,-1.33 3.88,-1.94l0 10.87c-1.16,0.61 -2.66,1.66 -3.88,1.94zm-79.97 -2.72c1.68,0.39 2.49,1.2 3.88,1.94l0 10.87 -3.88 -2.33c0.81,-1.45 0.39,-7.33 0.39,-9.32 0,-1.49 0.12,-0.14 -0.39,-1.16zm-23.68 -13.98c1.22,0.64 2.23,1.27 3.49,1.94l0 10.48c-1.34,-0.71 -2.25,-1.11 -3.49,-1.94l0 -10.48zm111.81 12.03l0 -10.48c1.12,-0.75 2.02,-1.6 3.49,-1.94l0 10.48c-1.22,0.65 -2.23,1.27 -3.49,1.94zm8.15 -5.05l0 -10.48c1.34,-0.71 2.25,-1.11 3.49,-1.94l0 10.48c-1.18,0.62 -2.31,1.62 -3.49,1.94zm-135.87 -15.92c1.67,0.39 2.06,1.17 3.49,1.55l0 10.48c-1.56,-0.83 -1.76,-1.54 -3.49,-1.94l0 -10.09zm143.64 10.09c0,-5.53 -1.32,-10.44 3.88,-10.87 0,6.84 1.15,9.21 -1.81,11.04 -2.34,1.44 -2.07,0.99 -2.07,-0.17zm-135.87 -5.44c1.76,0.15 2.67,1.13 3.88,1.94l0 10.09c-4.92,-2.6 -3.96,-1.7 -3.7,-10.65 0.03,-0.89 0.15,-0.59 -0.18,-1.39zm-15.92 -9.32c1.97,0.46 1.52,1.09 3.49,1.55l0 10.09c-1.27,-0.67 -2.28,-1.3 -3.49,-1.94l0 -9.71zm159.94 11.26l0 -10.09c1.18,-0.62 2.31,-1.62 3.49,-1.94l0 10.09c-1.13,0.3 -2.59,1.33 -3.49,1.94zm-168.09 -15.92c1.22,0.28 2.72,1.33 3.88,1.94l0 9.7c-4.88,-2.58 -3.88,-1.01 -3.88,-11.65zm176.25 10.87l0 -10.09c1.97,-0.46 1.52,-1.09 3.49,-1.55l0 9.7c-1.22,0.65 -2.23,1.27 -3.49,1.94zm-208.08 65.22l0 -70.66c2.71,0.73 3.81,2.39 3.88,5.02 0.51,17.92 -0.15,40.67 0,59.43 0.02,2.12 0.77,5.12 -3.88,6.21zm24.07 -80.75c2.02,0.47 2.1,1.47 3.88,1.94l0 9.7c-1.78,-0.47 -1.87,-1.47 -3.88,-1.94l0 -9.7zm191.78 10.87l0 -9.7c1.22,-0.65 2.23,-1.27 3.49,-1.94l0 9.7c-1.27,0.67 -2.28,1.3 -3.49,1.94zm-199.93 -209.24l3.88 2.33 0 203.04c-2.04,-1.37 -2.3,-0.63 -3.08,-3.13 -1.34,-4.29 -0.8,-14.04 -0.8,-19l0 -183.23zm207.69 204.2l0 -202.26c1.4,-0.74 2.2,-1.55 3.88,-1.94l0 182.07c0,4.27 -0.03,8.55 0.01,12.82 0.04,3.73 -0.13,2.88 -1.18,5.42 -1.35,3.28 -0.49,3.71 -2.71,3.89zm-247.68 -11.65l0 -116.46c0,-0.9 2.86,-7.4 3.88,-8.15l0 132.77c-1.39,-1.02 -3.88,-7.19 -3.88,-8.15zm288.05 6.99l0 -130.44 0.95 1.77c0.82,1.95 2.55,4.59 2.55,6l0 114.14c0,1.8 -2.18,7.03 -3.49,8.54zm-255.83 -204.59l3.49 1.94 0 192.94c-0.29,-0.42 -0.07,-0.04 -0.42,-0.74l-1.39 -3.27c-2.87,-6.39 -1.68,-8.78 -1.68,-16.95l0 -173.92zm223.61 191.78l0 -190.22c1.78,-0.47 1.87,-1.47 3.88,-1.94 0,3.65 0.35,181.38 -0.09,183.53 -0.16,0.8 -0.52,1.26 -0.91,2.2 -0.58,1.42 -1.96,5.37 -2.88,6.43zm24.07 -132.38l1.87 2.79c0.35,0.54 1.63,2.5 1.63,3.03l0 147.91c0,1.33 -2.42,4.98 -3.49,6.21l0 -30.28c0,-1.63 -0.16,-3.37 0.11,-4.97 0.6,-3.67 0.27,-1.1 -0.07,-3.57 -0.43,-3.11 -0.04,-119.67 -0.04,-121.12zm-8.15 -66c0.85,0.57 1.25,1.21 1.93,1.96 0.57,0.64 1.57,1.17 1.57,2.32l0 184.01 -3.49 0 0 -188.28zm-7.77 3.88c0,-1.43 2.45,-2.41 3.49,-3.11l0 187.51 -3.49 0 0 -184.4zm-247.68 0.39c0,-1.95 2.28,-3.84 3.49,-4.66l0 188.67 -3.49 0 0 -184.01zm-6.6 184.4c2.61,4.92 1.94,12.54 1.94,17.86 0,6.6 0,13.2 0,19.8 -0.91,-0.66 -3.49,-4.92 -3.49,-5.44l0 -149.85 3 -5.15c0.54,-0.79 0.11,-0.23 0.5,-0.67l0 123.06c-0.82,0.02 -1.54,-0.07 -1.94,0.39zm17.08 -0.39l-2.72 0 0 -187.12c1.11,0.59 3.88,1.62 3.88,3.11l0 182.85c0,0.89 -0.27,1.16 -1.16,1.16zm-34.55 -7.38l0 -70.27c0,-0.93 2.65,-10.65 3.88,-12.42l-0.62 94.57c-0.67,-2.03 -3.26,-10.5 -3.26,-11.88zm311.73 -1.55l0 -57.07c1.18,0.27 3.49,0.59 3.49,1.94l0 54.35c-1.26,0.03 -2.65,0.37 -3.49,0.78zm-319.89 -56.29c1.82,-0.15 1.86,-0.73 3.88,-0.78l0 57.07c-1.54,-0.13 -2.34,-0.65 -3.88,-0.78l0 -55.51zm327.65 1.55c1.32,0.31 2.32,0.74 3.88,0.78l0 51.24c-4.48,0.37 -3.88,3.94 -3.88,-8.93l0 -43.09zm-335.41 0.78c1.44,-0.34 1.74,-0.74 3.49,-0.78l0 52.8c-1.26,-0.03 -2.65,-0.37 -3.49,-0.78l0 -51.24zm343.57 50.08l0 -48.53c1.28,0.11 2.33,0.5 3.49,0.78l0 46.97c-1.79,0.42 -1.06,0.78 -3.49,0.78zm-351.72 -1.55l0 -45.42c0,-1.41 2.1,-1.52 3.49,-1.55l0 48.91c-1.34,-0.64 -3.49,-0.15 -3.49,-1.94zm-7.77 -44.26c1.26,-0.03 2.65,-0.37 3.49,-0.78l0 45.03c-1.13,-0.26 -2.37,-0.51 -3.49,-0.78l0 -43.48zm367.25 44.26l0 -44.64c1.57,0.03 2.56,0.47 3.88,0.78l0 42.7c-1.38,0.66 -2.73,0.61 -3.88,1.16zm8.15 -1.94l0 -40.38c1.95,0 1.74,0.35 3.49,0.39l0 39.21c-1.28,0.11 -2.33,0.51 -3.49,0.78zm-383.55 -39.99c1.28,-0.11 2.33,-0.5 3.49,-0.78l0 40.76c-1.28,-0.11 -2.33,-0.51 -3.49,-0.78l0 -39.21zm347.06 -16.3c0,7 0.43,63.61 -0.04,65.16l-2.61 8.67c-0.38,0.98 -0.27,0.82 -0.84,1.48l0 -90.06c1.63,1.19 3.49,10.68 3.49,14.75zm-59.4 -97.05c1.19,-0.32 2.31,-1.32 3.49,-1.94l0 83.47c-1.33,-0.31 -2.39,-0.97 -3.49,-1.55l0 -79.97zm-191.78 81.14l0 -82.69c1.31,0.35 2.81,1.61 3.88,2.33l0 78.42c-1.22,0.28 -2.72,1.33 -3.88,1.94zm184.01 -81.91c1.27,0.67 2.28,1.3 3.49,1.94l0 76.09c-1.13,-0.3 -2.59,-1.33 -3.49,-1.94l0 -76.09zm-176.25 77.25l-0 -71.04c-0.01,-2.69 -0.83,-5.34 3.88,-6.6l0 75.7c-1.16,0.61 -2.66,1.66 -3.88,1.94zm168.09 -82.3c1.22,0.64 2.23,1.27 3.49,1.94l0 76.48c-1.19,-0.32 -2.31,-1.32 -3.49,-1.94l0 -76.48zm-159.94 77.64l0 -76.09c1.47,-0.34 2.37,-1.19 3.49,-1.94l0 76.48c-1.97,0.46 -1.52,1.09 -3.49,1.55zm151.79 -81.52c1.52,0.13 2.75,0.95 3.88,1.55l0 76.09c-4.61,-1.08 -3.9,-3.51 -3.88,-6.21l0 -71.43zm-143.64 76.87l0 -75.7c1.1,-0.58 2.16,-1.24 3.49,-1.55l0 75.31 -2.38 1.5c-0.84,0.38 0.13,0.11 -1.11,0.44zm7.77 -7.38l0 -29.5 3.88 0 0 29.5c0,1.08 -2.54,2.46 -3.49,2.72 -0.57,-1.19 -0.15,-0.22 -0.29,-1.89 -0.01,-0.12 -0.1,-0.5 -0.1,-0.83zm119.96 -3.88l0 -25.62 3.49 0 0 28.34c-1.15,-0.27 -3.49,-1.43 -3.49,-2.72zm-111.81 2.33l0 -27.95 3.49 0 0 25.23c0,1.16 -0.66,1.12 -1.53,1.58 -0.9,0.47 -1.13,0.59 -1.96,1.14zm103.65 -6.99l0 -20.96 3.88 0 0 23.68c-1.24,-0.1 -3.88,-1.43 -3.88,-2.72zm-95.5 1.94l0 -22.9 3.49 0 0 21.35c-1.97,0.46 -1.52,1.09 -3.49,1.55zm87.74 -6.21l0 -16.69 3.88 0 0 19.41c-1.08,-0.29 -0.97,-0.42 -2.1,-1.01 -1,-0.52 -1.79,-0.55 -1.79,-1.71zm-79.97 1.55l0 -18.25 3.49 0 0 15.92c0,1.04 -0.47,1.03 -1.19,1.53 -0.77,0.53 -1.11,0.7 -2.3,0.8zm71.82 -6.6l0 -11.65 3.88 0 0 14.75c-1.18,-0.62 -3.88,-1.51 -3.88,-3.11zm-7.76 -4.27l0 -7.38 3.49 0 0 10.09c-1.12,-0.59 -3.49,-1.25 -3.49,-2.72zm-48.14 1.94l0 -9.32 3.88 0 0 6.6c0,1.15 -0.66,1.11 -1.53,1.58 -0.78,0.42 -1.5,0.91 -2.36,1.14zm-8.15 -9.32l3.88 0c0,10.41 1.43,12.74 -3.88,13.98 0.83,-1.48 0.39,-10.5 0.39,-12.81 0,-1.48 0.12,-0.14 -0.39,-1.16zm-103.65 -1.16l0 -35.33c0,-0.88 3.25,-4.11 3.49,-4.27l0 45.03c-0.86,-0.63 -1.21,-1.41 -1.82,-2.45 -0.46,-0.78 -1.68,-2.32 -1.68,-2.98zm271.75 5.05l0 -44.26c0.86,0.63 0.95,1.13 1.84,2.04 0.62,0.63 1.65,1.23 1.65,2.23l0 33.77c0,1.33 -2.42,4.98 -3.49,6.21zm-187.51 -46.2l96.28 0c2.11,0 8.1,-0.84 9.34,0.36 0.45,0.44 0.78,2.79 0.97,3.69l8.32 35.55 -39.99 0c-6.28,-0.04 -4.66,-0.36 -4.66,10.09 0,1.21 1.02,1.28 2.05,1.83l74.6 43.03c0.97,0.56 2.16,0.88 2.16,2.12l0 103.26c0,1.34 -7.89,5.48 -9.31,6.21 -1.88,0.97 -3,1.81 -4.92,2.85 -1.72,0.94 -3.28,1.78 -4.96,2.8 -1.7,1.03 -3.23,2.04 -4.87,2.89l-46.78 26.98c-2.46,1.33 -4.83,3.44 -7.57,4.08l0 17.47c1.83,-0.15 2.67,-1.19 4.15,-2.07l29.79 -17.96c0.83,-0.5 1.18,-0.6 2.01,-1.1l43.62 -26.25c2.14,-1.23 6.17,-3.37 7.95,-4.86 1.04,-0.87 1.6,-2.85 2.11,-4.1 1.38,-3.36 8.39,-21.7 9.68,-22.52 0.94,-0.59 13.66,-0.43 14.83,0.05 -0.51,2.18 -0.86,4.31 -1.5,6.26l-3.15 12.38c-0.85,3.59 -0.65,2.62 -3.16,4.6l-28.75 21.72c-0.92,0.63 -1.44,1.02 -2.26,1.63 -6.34,4.77 -13.43,10.72 -19.87,15.06 -1.05,0.71 -1.29,0.95 -2.2,1.68 -8.73,7.02 -21.37,16.17 -31,23.35 -1.58,1.18 -2.85,2.21 -4.46,3.3l-26.54 20.04c-1.6,1.2 -2.94,2.21 -4.44,3.33 -1.49,1.11 -3.14,2.47 -4.66,3.49l-72.98 -55.13c-0.8,-0.58 -1.44,-0.97 -2.28,-1.6l-22.12 -16.7c-1.63,-1.19 -2.85,-2.05 -4.42,-3.35 -0.91,-0.75 -1.36,-1.01 -2.24,-1.64l-11.04 -8.38c-1.64,-1.23 -2.9,-2.09 -4.44,-3.32 -1.47,-1.19 -2.87,-2.17 -4.43,-3.33 -0.62,-0.46 -1.79,-1.23 -2.19,-1.69l-0.33 -0.45c-0.9,-1.54 -3.52,-12.77 -3.94,-14.69 -0.51,-2.35 -1.06,-4.34 -1.58,-6.57 1.94,-0.8 9.19,-0.12 12.02,-0.23 4.27,-0.17 3.83,1.34 6.5,8.11l5.66 13.36c3.21,7.58 2.35,5.18 9.76,9.65l7.98 4.83c1.34,0.72 2.64,1.55 3.9,2.31l23.79 14.26c1.56,0.84 2.8,1.57 4.14,2.46l19.93 11.9c3.95,1.97 8.41,4.8 12.13,7.28 1.69,1.13 6.49,4.35 8.31,4.5l0 -17.08c-3.17,-0.74 -6.97,-3.84 -9.72,-5.42 -7.26,-4.17 -23.27,-13.76 -29.36,-16.84 -5.82,-2.94 -36.42,-21.71 -38.95,-22.39l0 -105.59 12.34 -7.07c7.48,-4.7 18.98,-10.81 27.09,-15.61 1.78,-1.05 3.19,-1.77 4.95,-2.82 1.79,-1.07 3.13,-1.91 4.93,-2.84 3.34,-1.73 6.41,-3.83 9.84,-5.69l17.22 -9.95c3.17,-1.69 2.05,-1.49 2.05,-11.92l-44.64 0 2.28 -9.75c1.83,-6.47 3.14,-13.25 4.71,-19.74l2.32 -10.1zm115.69 -1.55c1.7,0.4 1.62,1.01 3.49,1.16l0 75.7c-1.67,-0.39 -2.06,-1.17 -3.49,-1.55l0 -31.45 2.33 0c-0.07,-2.92 -1.4,-6.6 -2.04,-9.22 -0.61,-2.5 -0.29,-30.68 -0.29,-34.65zm-208.08 29.12l0 -13.2c0,-1.14 3.04,-3.7 3.88,-4.27l0 24.07c-0.74,-0.54 -3.88,-5.11 -3.88,-6.6zm288.05 5.44l0 -22.13c0.81,0.55 3.49,2.76 3.49,3.88l0 12.03c0,1.69 -3.02,5.86 -3.49,6.21zm-207.3 6.21l-0.78 -34.55c-0.01,-3.18 -0.46,-5.03 2.47,-6.16 0.85,-0.33 1.41,-0.64 1.41,0.73 0,10 0.87,22.97 -1.31,31.68 -0.6,2.38 -1.73,5.76 -1.79,8.3zm215.46 -19.02c-1,0.12 -0.12,-1.31 -0.01,-0.48l0.01 0.48zm-301.64 -0.78l1.49 -1.23 0.06 3.17c-1.26,-0.85 -0.86,-0.64 -1.55,-1.94zm205.36 -24.07c1.5,0.35 2.18,0.86 3.49,1.16l0 13.98c-0.05,-0.08 -0.11,-0.32 -0.13,-0.26l-0.53 -1.41c-0.29,-0.92 -0.3,-1 -0.48,-1.85 -0.64,-2.96 -2.36,-9.29 -2.36,-11.62zm-15.92 -4.66c1.57,0.03 2.56,0.47 3.88,0.77l0 5.82 -3.88 0 0 -6.6zm-15.92 -37.66l0.66 1.67c0.29,0.92 0.3,1 0.48,1.85 0.71,3.32 2.35,9.27 2.35,11.62l0 29.12 -3.49 0 0 -44.26zm-15.92 -8.93l3.49 0 0 53.18 -3.49 0 0 -53.18zm-8.15 0l3.49 0 0 53.18 -3.49 0 0 -53.18zm-8.15 0l3.88 0 0 53.18 -3.88 0 0 -53.18zm-23.68 45.03c1.27,-0.11 2.04,-0.31 2.53,-1.35 0.29,-0.61 0.57,-2.83 0.57,-3.7l0.39 13.2 -3.49 0 0 -8.15zm-8.15 1.94c1.76,-0.04 1.54,-0.39 3.49,-0.39l0 6.6 -3.49 0 0 -6.21zm-7.76 2.33c1.44,-0.33 1.74,-0.74 3.49,-0.78l0 4.66 -3.49 0 0 -3.88zm-8.15 12.42l0 -9.32c1.06,-0.56 1.99,-1.04 3.49,-1.16l0 1.94c-2.12,0.18 -1.62,1.42 -2.11,3.72l-0.86 3.8c-0.41,1.17 -0.25,0.63 -0.53,1.03zm106.37 -8.54l-2.72 0 0 -4.66c1.27,0.11 3.88,0.6 3.88,1.94l0 1.55c0,0.9 -0.27,1.16 -1.16,1.16zm-18.63 -10.87l0.46 1.09c0.19,0.59 0.14,0.51 0.31,1.24 3.94,0.33 3.11,0.33 3.11,8.54 -5.01,0 -3.88,1.19 -3.88,-10.87zm-15.92 9.7l0 -52.02c2.78,0 3.88,-0.38 3.88,1.16l0 50.85c0,1.73 -3.88,1.73 -3.88,0zm-37.27 1.16l-2.72 0 0 -31.83 3.88 -15.92 0 42.7c0.01,1.95 0.63,5.05 -1.16,5.05zm8.93 -1.94l0 1.94 -3.49 0 0 -53.18 3.49 0c0.63,7.53 0.22,39.12 0.17,49.44l-0.17 1.8zm-111.42 -6.6l-27.04 28.47c-0.51,0.55 -1.32,1.64 -1.69,2.19 4.96,9.38 15.59,23.96 20.58,33.38l-6.45 10.64c-3.52,5.24 -8.71,17.1 -10.78,23.38 -2.34,7.08 -3.26,8.85 -4.92,16.42l-1.62 6.92c-0.28,1.56 0.05,2.28 -1.31,2.96 -0.51,0.25 -2.65,0.67 -3.41,0.86 -1.45,0.36 -2.03,0.56 -3.28,0.99 -6.5,2.21 -13.32,3.64 -19.99,5.63 -2.37,0.71 -4.21,1.15 -6.69,1.85 -2.09,0.6 -4.55,1.6 -6.76,1.78l0 41.93c2.51,0.06 21.25,4.69 25.61,5.83 2.06,0.54 4.17,0.83 6.38,1.39 11.16,2.82 10.15,0.24 12.35,7.45 2.1,6.85 4.42,13.77 7.28,20.29 0.89,2.03 1.57,3.54 2.59,5.56 0.57,1.13 0.92,1.46 1.41,2.48 2.95,6.18 6.59,11.93 10.38,17.58 -1.65,3.11 -6.62,10.19 -9.04,13.47l-3.11 4.65c-3.3,5.53 -7.29,10.59 -10.77,16.02 -0.63,0.98 -0.91,1.17 -1.53,2.35 1.42,2.13 5.65,5.36 7.77,6.99 4.12,3.17 7.94,6.85 11.92,10.21 13.1,11.08 10.49,11.37 15.64,7.64l24.4 -17.53c5.92,-4.37 4.87,-3.99 10.92,0.06l5.56 3.37c1.08,0.62 0.96,0.77 1.84,1.27 0.78,0.44 1.26,0.47 2.18,0.92 7.42,3.7 14.76,7.32 22.69,9.91 6.94,2.27 4.53,2.02 14,4.24l7.16 1.77c2.39,0.6 1.61,1.99 2.9,6.03l7.29 28.81c0.41,1.94 1.16,3.06 1.2,5.01l43.48 0c0.04,-1.7 1.14,-4.85 1.56,-6.6l6.84 -26.93c0.44,-1.44 0.65,-1.78 0.95,-3.32 0.32,-1.68 0.02,-2.24 1.44,-2.83 0.57,-0.24 2.43,-0.53 3.45,-0.82l10.22 -2.59c4.81,-1.26 13.59,-4.61 18.58,-6.65 5.28,-2.16 12.04,-5.64 16.97,-8.65 12.07,-7.38 9.32,-7.72 14.81,-3.61 0.88,0.66 27.93,20.47 28.84,20.47 1.27,0 3.28,-2.42 4.21,-3.16 7.39,-5.92 14.63,-12.37 21.71,-18.67 1.88,-1.68 4.5,-3.24 5.91,-5.34 -2.16,-4.08 -19.01,-28.06 -22.93,-34.14 -0.63,-0.97 -0.91,-1.19 -1.53,-2.35l17.42 -33.05 4.56 -14.08c0.38,-1.49 0.82,-2.36 0.93,-3.73 4.63,-0.38 11.27,-2.55 16.21,-3.59 5.67,-1.19 23.22,-6.04 26.88,-6.12l0 -41.93c-3.09,-0.07 -22.63,-6.32 -27.64,-7.69l-9.39 -2.64c-5.24,-1.28 -3.88,-1.16 -6.22,-11.25 -1.5,-6.49 -3.18,-12.17 -5.67,-18.41 -3.84,-9.62 -8.31,-19.14 -14.15,-27.78 -3.04,-4.5 -2.37,-3.34 0.16,-7.57l6.74 -10.73c0.49,-0.85 0.6,-1.19 1.11,-1.99 0.5,-0.78 0.71,-1.04 1.21,-1.89l9.19 -14.87 -2.53 -2.9c-0.67,-0.67 -0.35,-0.36 -0.91,-1.03 -1.18,-1.41 -2.42,-2.37 -3.6,-3.78l-10.72 -11.4c-3.73,-3.72 -7.15,-7.93 -10.97,-11.55l-32.52 21.47c-2.35,1.46 -5.62,-1.71 -7.73,-2.96 -3.91,-2.32 -7.48,-4.63 -11.64,-6.61l-4.17 -2.04c-1.88,-0.78 -2.47,-1.22 -4.21,-2 -2.98,-1.33 -5.62,-2.1 -8.71,-3.32 -6.05,-2.39 -12.06,-4.09 -18.52,-5.55 -5.16,-1.17 -4.61,-1.4 -5.82,-6.21l-9.16 -39.37 -45.81 0c-0.76,3.25 -1.66,6.5 -2.3,9.74 -0.68,3.48 -1.61,6.44 -2.27,9.77l-5.71 24.18c-0.61,1.11 -3.05,1.47 -4.45,1.77 -5.63,1.19 -13.24,3.1 -18.54,5.53 -1.65,0.75 -2.76,1.04 -4.55,1.66 -3.01,1.05 -5.45,2.54 -8.34,3.7 -4.06,1.63 -8.37,4.04 -12.07,6.17 -2.14,1.24 -9.16,6.79 -11.26,5.84 -0.4,-0.18 -1.36,-0.93 -1.88,-1.27 -0.77,-0.49 -1.14,-0.64 -1.91,-1.2 -2.46,-1.78 -4.77,-3.07 -7.2,-4.84l-22.02 -14.47z"/>
    <g>
     <path class="fil1" d="M155.11 221.81c6,1.07 48.59,-0.74 53.34,0.46l0.12 42.63 -48.27 0.2c-0.49,-1.99 -0.56,-8.43 0.1,-10.17 5.77,-0.58 19.58,1.18 23.83,-1.03 2.01,-0.05 3.72,-6.67 -4.01,-6.8l-18.1 0.11c-0.97,0.03 -0.56,0.4 -1.2,-0.26 -1.02,-1.05 -0.37,-5.61 -0.37,-7.41l28.73 0c3.31,0 6.71,0.5 8.45,-1.25 1.94,-1.96 0.98,-5.58 -1.43,-6.54 -2.25,-0.9 -32.19,-0.31 -38.09,-0.37 -2.37,-0.02 -5.51,0.08 -5.82,3.89 -0.42,5.12 0.01,21.89 0.01,29.12 0,3.98 -0.68,6.17 1.92,7.78 2.16,1.33 15.17,0.76 18.65,0.76 12.48,0 26.11,0.53 38.45,0.01 3.1,-0.13 4.81,-1.7 5.03,-4.67l0.02 -48.54c-0.13,-7 -6.28,-5.42 -13.99,-5.42 -12.94,0 -25.88,0 -38.82,0 0.49,-2.09 2.02,-4.01 2.98,-5.95l9.46 -17.33c0.55,-0.95 0.99,-1.68 1.53,-2.74l11.26 -20.57 21.36 10.48c0.75,0.35 1.34,0.59 2.65,0.38 2.9,-0.47 4.83,-4.42 2.04,-7.01 -1,-0.93 -5.96,-3.11 -7.68,-3.97l-13.55 -6.63c-1.19,-0.53 -0.92,-0.55 -1.98,-1.13 -6.75,-3.68 -7.23,-0.55 -10.06,4.17 -7.83,13.09 -17.06,32.05 -24.89,45.38l-4.15 7.51c-0.87,2.46 0.49,3.17 0.92,4.79 1.32,0.32 0.45,0.22 1.55,0.14z"/>
     <path class="fil1" d="M183.45 203.03c0,2.96 3.13,4.27 6.21,4.27l35.71 0 0 61.73c0,1.18 0.38,1.8 1.05,2.45 3.21,3.13 7.11,0.69 7.11,-3.61l0 -60.56 31.45 0c8.24,0 7.2,-8.54 1.16,-8.54l-78.42 0c-2.27,0 -4.27,2 -4.27,4.27z"/>
     <path class="fil1" d="M184.22 133.93c0,6.82 0.29,16.07 6.43,20.36 5.87,4.11 10.13,-0.48 12.73,-5.85 4.68,-9.67 2.48,-29.29 -7.51,-31.62 -6.95,-1.62 -11.65,9.78 -11.65,17.12z"/>
    </g>
    <g>
     <path class="fil1" d="M157.22 88.9c-3.21,0 -3,0.22 -3.14,-1.92l-0.12 -5.72c-0.41,-3.74 -0.23,-8.58 -0.23,-12.55 2.34,-0.05 1.77,-0.46 4.34,-0.09 1.92,0.28 2.8,0.54 4.13,1.32 2.24,1.31 3.54,3.83 3.97,6.92 0.42,3.03 -0.14,5.97 -1.72,8.4 -1.63,2.51 -3.94,3.64 -7.24,3.64zm-9.7 -21.74c0,0.09 0.04,0.14 0.05,0.28l-0.05 26.12c7.4,0.16 17.09,2.54 22.66,-6.46 3.7,-5.98 3.71,-15.16 -1.41,-19.83 -5.21,-4.75 -13.32,-3.6 -21.24,-3.6l0 3.49z"/>
     <path class="fil1" d="M177.8 65.99l0 25.23c0,1.21 -1.01,2.33 0.78,2.33l18.63 0 0.39 -5.05 -13.59 0 0 -8.15 8.38 0.22c0.53,0.05 0.78,0.08 1.72,0.16l0 -5.05 -10.09 0c0,-1.76 0.2,-5.55 -0.39,-6.99l12.42 0.39c0,-1.47 0.21,-2.22 0.29,-3.33l0.03 -0.53c-0.03,-1.92 -0.2,-1.58 -1.1,-1.58 -20.19,0 -17.47,-1.02 -17.47,2.33z"/>
     <path class="fil1" d="M201.09 71.43c0,10.5 14.36,9.11 14.36,14.75 0,5.28 -10.9,2.57 -13.59,1.94 -0.46,0.95 -1.13,4.03 -1.16,5.44 2.12,0.05 2.74,0.78 5.05,0.78 7.94,0 15.92,0.6 15.92,-9.71 0,-9.19 -14.36,-8.89 -14.36,-13.59 0,-4.11 8.41,-2.62 10.66,-2.02 2,0.53 1.54,0.2 1.98,-2.47 0.4,-2.44 1.37,-3.23 -6.01,-3.28 -5.73,-0.04 -12.83,1.36 -12.83,8.16z"/>
     <path class="fil1" d="M224 65.61c0,0.38 -0.14,0.78 -0.14,0.81 -0.11,0.81 -0.25,1.82 0.14,2.68l8.54 -0.39c0,3.54 0.4,22.93 -0.39,24.85l6.99 0c-0.68,-8.16 -0.39,-16.2 -0.39,-24.85l7.38 0c1.48,0 0.14,-0.12 1.16,0.39 0,-1.75 0.19,-2.18 0.33,-3.25 0.16,-1.3 0.2,-2.18 -1.1,-2.18l-22.52 0 0 1.94z"/>
    </g>
   </g>
  </g>
 </g>
</svg>
